<svg class="robinhood" version="1.1" id="Layer_1" xmlns="http://www.w3.org/2000/svg" xmlns:xlink="http://www.w3.org/1999/xlink" x="0px" y="0px" viewBox="-10 0 80 80" enable-background="new 0 0 80 80" xml:space="preserve">
    <g>
        <g>
        <path d="M29.427,60.489L28.913,60.7c-3.064,1.021-7.657,2.55-11.649,4.491c-0.209,0.101-0.406,0.405-0.406,0.405 c-0.109,0.202-0.217,0.413-0.304,0.617c-0.427,1.021-1.123,2.556-1.333,3.266l-0.195,0.521c0,0.103,0,0.196,0,0.196l0.087,0.108 h0.108l0.493-0.202c1.144-0.522,2.564-1.334,4.005-2.044h0.094c2.862-1.332,6.035-2.868,7.868-3.781c0,0,0.304-0.202,0.514-0.507 l1.428-2.869c0-0.102,0-0.202,0-0.202C29.623,60.489,29.514,60.396,29.427,60.489"></path>
        <path d="M17.981,55.998c0.211-0.412,1.116-2.15,1.333-2.557V53.34c6.229-11.749,13.8-22.787,22.463-32.906 l0.217-0.308c0.11-0.104,0.11-0.206,0-0.305c-0.108-0.104-0.217-0.208-0.304-0.104h-0.406c-5.737,0.822-11.554,1.843-17.27,3.271 c-0.623,0.206-0.926,0.514-1.035,0.608c-4.289,5.114-8.28,10.528-12.069,16.052c0.124,0.305,0.124,0.92,0.124,0.92 s0.906,7.151,2.246,12.467c-3.275,9.708-6.339,22.58-6.339,22.58c0,0.109,0,0.211,0,0.211c0,0.101,0.109,0.101,0.195,0.101h1.941 c0.102,0,0.21-0.101,0.319-0.202l0.086-0.413c1.941-5.311,4.202-10.628,6.643-15.742C16.75,58.439,17.981,55.998,17.981,55.998"></path>
        <path d="M44.756,22.582v-0.409c0-0.104-0.11-0.211-0.197-0.305c-0.108,0-0.218,0-0.319,0.094l-0.202,0.309 C33.802,34.023,25.334,47.103,18.604,61.106l-0.217,0.303c0,0.103,0,0.204,0,0.312c0.086,0.095,0.086,0.095,0.217,0.095h0.086 l0.305-0.095c5.715-2.354,11.554-4.396,17.371-6.135c0.304-0.102,0.623-0.305,0.819-0.608c2.564-4.905,8.475-14.514,8.475-14.514 c0.218-0.309,0.124-0.615,0.124-0.615S44.756,28.401,44.756,22.582"></path>
        <path d="M57.838,6.025c-1.42-1.231-3.593-1.844-6.853-1.941c-2.847-0.105-6.339,0.612-10.323,1.836 c-0.609,0.211-1.021,0.515-1.535,0.917c-4.079,3.785-7.955,7.875-11.642,11.964l-0.318,0.305c-0.094,0.104-0.094,0.202,0,0.307 c0.101,0.103,0.209,0.201,0.318,0.103l0.406-0.103c6.042-1.329,12.054-2.249,17.987-2.867c0.406,0,0.818,0.104,1.115,0.307 c0.327,0.312,0.413,0.62,0.413,1.022c-0.085,5.933,0.11,11.858,0.61,17.58v0.409c0,0.1,0.124,0.204,0.209,0.204c0,0,0,0,0.11,0 c0.108,0,0.195,0,0.195-0.104l0.21-0.305c3.367-4.799,6.947-9.403,10.83-13.79c0.404-0.514,0.514-0.822,0.622-1.235 C61.403,13.171,59.57,7.456,57.838,6.025"></path>
        </g>
    </g>
</svg>