<svg xmlns="http://www.w3.org/2000/svg" version="1.0" viewBox="-26.280105 -11.1819 227.76091 67.0914">
   <path style="line-height:125%" d="M18.4724 25.7712c-.5902 2.8954-1.7467 5.123-3.4695 6.6827-1.7229 1.5597-3.6291 2.3396-5.7188 2.3396-2.4886 0-4.658-1.0478-6.5084-3.1434C.9252 29.5545 0 26.723 0 23.1557c0-3.4554 1.025-6.2628 3.0747-8.4225 2.0499-2.1595 4.5105-3.2393 7.3818-3.2393 2.1535 0 3.9242.5719 5.312 1.7156 1.3879 1.1438 2.0818 2.3316 2.0818 3.5634 0 .6079-.1954 1.0998-.5862 1.4757-.3909.376-.9372.5639-1.6391.5639-.9412 0-1.651-.304-2.1296-.9118-.2712-.336-.4507-.9759-.5384-1.9197-.0878-.9438-.4108-1.6637-.969-2.1596-.5584-.4799-1.332-.7198-2.321-.7199-1.5953 0-2.8794.592-3.8525 1.7757-1.2921 1.5677-1.9382 3.6393-1.9382 6.2149 0 2.6235.6421 4.939 1.9262 6.9467 1.2842 2.0076 3.019 3.0114 5.2044 3.0114 1.5633 0 2.967-.536 4.2113-1.6077.8773-.7359 1.7308-2.0716 2.5603-4.0073zm9.5234-14.2773v4.943c1.8344-3.2953 3.7168-4.943 5.647-4.943.8773 0 1.6031.268 2.1774.8038.5743.536.8614 1.1558.8614 1.8597 0 .6238-.2074 1.1518-.6221 1.5837-.4148.4319-.9093.6479-1.4835.6478-.5584 0-1.1845-.2759-1.8784-.8278-.694-.5519-1.2084-.8278-1.5434-.8279-.2871 0-.5982.16-.9331.48-.7179.6559-1.4597 1.7357-2.2253 3.2393v10.534c0 1.2159.1515 2.1357.4546 2.7596.2074.4319.5742.7918 1.1007 1.0798.5264.288 1.2841.4319 2.2731.4319v.8638H20.602v-.8638c1.1166 0 1.9461-.176 2.4885-.528.3988-.2559.678-.6638.8375-1.2237.0798-.272.1196-1.0478.1196-2.3276v-8.5184c0-2.5595-.0518-4.0832-.1555-4.5711-.1037-.4879-.2951-.8438-.5743-1.0678-.2791-.224-.626-.336-1.0408-.336-.4945 0-1.0529.12-1.675.36l-.2393-.8639 6.628-2.6874zm22.3726 19.4603c-2.2492 1.7437-3.661 2.7515-4.2352 3.0234-.8614.4-1.7787.6-2.7518.6-1.5154 0-2.7636-.52-3.7447-1.5598-.981-1.0398-1.4716-2.4075-1.4715-4.1032 0-1.0718.2392-1.9996.7178-2.7835.654-1.0878 1.7906-2.1116 3.4097-3.0714s4.311-2.1276 8.0757-3.5034v-.8638c0-2.1916-.347-3.6953-1.0408-4.5112-.694-.8158-1.703-1.2237-3.027-1.2237-1.005 0-1.8025.272-2.3927.8158-.6062.544-.9093 1.1678-.9093 1.8717l.0478 1.3917c0 .7359-.1874 1.3038-.5623 1.7037-.3749.4-.8654.5999-1.4716.5999-.5902 0-1.0727-.208-1.4476-.6239-.3749-.416-.5623-.9838-.5623-1.7037 0-1.3757.7019-2.6395 2.1057-3.7913 1.4037-1.1517 3.3738-1.7276 5.9102-1.7276 1.9461 0 3.5413.328 4.7856.9838.9411.4959 1.635 1.2717 2.0817 2.3275.2871.688.4307 2.0957.4307 4.2232v7.4626c0 2.0957.0399 3.3794.1197 3.8513.0796.472.2113.7879.3948.9478.1834.16.3948.24.634.24.2553 0 .4786-.056.67-.168.335-.208.981-.7918 1.9382-1.7516v1.3437c-1.7866 2.3996-3.4935 3.5993-5.1206 3.5993-.7816 0-1.4038-.272-1.8664-.8158-.4626-.544-.7019-1.4717-.7178-2.7835zm0-1.5597v-8.3744c-2.4087.9598-3.964 1.6397-4.666 2.0396-1.2601.7039-2.1614 1.4397-2.7038 2.2076-.5424.7678-.8136 1.6077-.8135 2.5195 0 1.1518.343 2.1076 1.0289 2.8675.6859.7598 1.4755 1.1398 2.3688 1.1398 1.2124 0 2.8076-.7999 4.7856-2.3996zM65.2516 0c.67 0 1.2403.236 1.7109.7079.4706.472.7059 1.0438.7059 1.7156 0 .672-.2353 1.2478-.706 1.7277-.4705.48-1.0408.72-1.7108.7199-.67 0-1.2442-.24-1.7228-.7199-.4785-.4799-.7178-1.0557-.7178-1.7277 0-.6718.2353-1.2437.7059-1.7156C63.9874.2359 64.5657 0 65.2516 0zm1.986 11.4939v17.6606c0 1.3758.0997 2.2916.2992 2.7475.1993.456.4945.7959.8853 1.0198.3908.224 1.1047.336 2.1415.336v.8638h-10.648v-.8638c1.0689 0 1.7867-.104 2.1536-.312.3669-.208.658-.5519.8734-1.0318.2153-.4799.323-1.3997.323-2.7595v-8.4704c0-2.3835-.0718-3.9272-.2153-4.6311-.1117-.5119-.2872-.8678-.5265-1.0678-.2392-.2-.5663-.3-.981-.3-.4467 0-.989.12-1.6271.36l-.335-.8639 6.6041-2.6874zM79.13 26.107c-1.34-.6558-2.369-1.5717-3.0867-2.7475-.7179-1.1757-1.0768-2.4755-1.0768-3.8992 0-2.1756.8175-4.0473 2.4526-5.615 1.635-1.5677 3.7288-2.3515 6.2811-2.3515 2.0897 0 3.9003.5119 5.4317 1.5357h4.642c.686 0 1.0847.02 1.1964.06.1116.04.1914.108.2393.204.0956.144.1435.3999.1435.7678 0 .416-.0399.7039-.1196.8638-.0478.08-.1316.144-.2512.192-.1197.048-.5225.072-1.2084.072h-2.8474c.8933 1.1518 1.34 2.6235 1.34 4.4151 0 2.0477-.7817 3.7993-2.345 5.255-1.5633 1.4558-3.661 2.1837-6.293 2.1837-1.0848 0-2.1935-.16-3.326-.48-.702.608-1.1765 1.1398-1.4238 1.5958-.2472.4559-.3709.8438-.3709 1.1637 0 .272.1316.536.3949.7919.2632.256.7776.44 1.5433.5519.4467.064 1.5633.12 3.35.168 3.286.08 5.4156.192 6.3887.3359 1.4835.208 2.668.7598 3.5533 1.6557.8853.8958 1.328 1.9996 1.328 3.3114 0 1.8076-.8455 3.5033-2.5364 5.087-2.4885 2.3356-5.7347 3.5033-9.7386 3.5034-3.0788 0-5.679-.696-7.8006-2.0877-1.1964-.7998-1.7946-1.6317-1.7946-2.4955 0-.384.0878-.7679.2632-1.1518.2712-.5919.8295-1.4157 1.675-2.4715.1116-.144.9252-1.0078 2.4406-2.5915-.8295-.496-1.4157-.9399-1.7587-1.3318-.343-.392-.5144-.8358-.5144-1.3317 0-.56.2273-1.2158.682-1.9677.4546-.7518 1.5034-1.8156 3.1465-3.1914zm4.1634-13.4615c-1.1804 0-2.1694.472-2.967 1.4158-.7976.9438-1.1964 2.3915-1.1964 4.3432 0 2.5275.5423 4.4871 1.627 5.8789.8296 1.0558 1.8824 1.5837 3.1586 1.5837 1.2123 0 2.2093-.456 2.991-1.3678.7816-.9118 1.1724-2.3435 1.1724-4.2952 0-2.5435-.5503-4.5351-1.651-5.9749-.8136-1.0557-1.8584-1.5836-3.1346-1.5837zm-4.4027 21.476c-.7498.8159-1.316 1.5757-1.6989 2.2796-.3829.7039-.5743 1.3517-.5743 1.9436 0 .7679.4626 1.4398 1.3878 2.0157 1.5952.9918 3.9003 1.4877 6.9152 1.4877 2.8714 0 4.989-.508 6.353-1.5237 1.3638-1.0159 2.0457-2.0997 2.0458-3.2514 0-.8319-.4068-1.4238-1.2204-1.7757-.8295-.352-2.4725-.5599-4.9291-.6239-3.5892-.096-6.349-.28-8.2791-.5519zM111.935 11.494v7.4866h-.7896c-.6062-2.3516-1.3838-3.9513-2.333-4.7992-.9491-.8478-2.1575-1.2717-3.625-1.2717-1.1167 0-2.018.296-2.704.8878-.6859.592-1.0288 1.2478-1.0288 1.9677 0 .8958.2552 1.6637.7657 2.3035.4945.656 1.4995 1.3518 3.0149 2.0876l3.4935 1.7037c3.2382 1.5837 4.8573 3.6713 4.8574 6.2628 0 1.9997-.7538 3.6114-2.2612 4.8351-1.5075 1.2238-3.1944 1.8357-5.0608 1.8357-1.34 0-2.8714-.24-4.5942-.7199-.5264-.16-.9571-.24-1.292-.24-.367 0-.6541.208-.8615.624h-.7896V26.611h.7896c.4467 2.2396 1.3 3.9273 2.5603 5.063 1.2602 1.1359 2.672 1.7038 4.2353 1.7038 1.1006 0 1.998-.324 2.6919-.9719.6939-.6478 1.0408-1.4277 1.0408-2.3395 0-1.1038-.3868-2.0316-1.1605-2.7835s-2.317-1.7037-4.63-2.8555c-2.313-1.1517-3.8285-2.1915-4.5464-3.1194-.7178-.9118-1.0767-2.0636-1.0767-3.4553 0-1.8077.6181-3.3194 1.8544-4.5352 1.2363-1.2157 2.8355-1.8236 4.7976-1.8236.8614 0 1.9062.184 3.1345.5518.8136.24 1.356.36 1.6271.36.2552 0 .4546-.056.5982-.168.1436-.112.311-.3599.5025-.7438zM124.3538 0v29.1545c0 1.3758.0996 2.2876.299 2.7355.1995.448.5065.7879.9213 1.0198.4147.232 1.1884.348 2.321.348v.8638h-10.7437v-.8638c1.005 0 1.691-.104 2.0578-.312.367-.208.654-.5519.8614-1.0318.2074-.4799.3111-1.3997.3111-2.7595V9.1903c0-2.4795-.0558-4.0032-.1675-4.5712-.1116-.5678-.2911-.9558-.5384-1.1637-.2472-.208-.5623-.312-.9451-.312-.4148 0-.9412.128-1.5793.384l-.4067-.8399L123.277 0zm11.629 0c.67 0 1.2402.236 1.7108.7079.4706.472.7059 1.0438.7059 1.7156 0 .672-.2353 1.2478-.7059 1.7277-.4706.48-1.0409.72-1.7108.7199-.67 0-1.2443-.24-1.7229-.7199-.4785-.4799-.7178-1.0557-.7178-1.7277 0-.6718.2353-1.2437.7059-1.7156.4706-.472 1.0488-.7079 1.7348-.7079zm1.986 11.4939v17.6606c0 1.3758.0996 2.2916.299 2.7475.1995.456.4946.7959.8854 1.0198.3908.224 1.1047.336 2.1416.336v.8638h-10.648v-.8638c1.0688 0 1.7866-.104 2.1535-.312.367-.208.658-.5519.8734-1.0318.2154-.4799.323-1.3997.323-2.7595v-8.4704c0-2.3835-.0718-3.9272-.2153-4.6311-.1117-.5119-.2872-.8678-.5264-1.0678-.2393-.2-.5663-.3-.981-.3-.4467 0-.9891.12-1.6272.36l-.335-.8639 6.6042-2.6874zm20.1952 0v7.4866h-.7896c-.6062-2.3516-1.3839-3.9513-2.333-4.7992-.9491-.8478-2.1575-1.2717-3.625-1.2717-1.1167 0-2.018.296-2.704.8878-.6859.592-1.0288 1.2478-1.0288 1.9677 0 .8958.2552 1.6637.7657 2.3035.4945.656 1.4994 1.3518 3.0149 2.0876l3.4935 1.7037c3.2382 1.5837 4.8573 3.6713 4.8573 6.2628 0 1.9997-.7537 3.6114-2.2612 4.8351-1.5074 1.2238-3.1944 1.8357-5.0607 1.8357-1.34 0-2.8714-.24-4.5942-.7199-.5264-.16-.9571-.24-1.2921-.24-.3669 0-.654.208-.8614.624h-.7896V26.611h.7896c.4466 2.2396 1.3 3.9273 2.5603 5.063 1.2602 1.1359 2.672 1.7038 4.2352 1.7038 1.1007 0 1.998-.324 2.692-.9719.6938-.6478 1.0408-1.4277 1.0408-2.3395 0-1.1038-.3868-2.0316-1.1605-2.7835s-2.317-1.7037-4.63-2.8555c-2.3131-1.1517-3.8286-2.1915-4.5464-3.1194-.7178-.9118-1.0767-2.0636-1.0767-3.4553 0-1.8077.618-3.3194 1.8544-4.5352 1.2362-1.2157 2.8354-1.8236 4.7975-1.8236.8614 0 1.9063.184 3.1346.5518.8135.24 1.3559.36 1.6271.36.2552 0 .4546-.056.5982-.168.1436-.112.311-.3599.5025-.7438zm11.2462-6.5748v7.2226h5.1206v1.6797h-5.1206v14.2533c0 1.4238.2033 2.3836.6101 2.8795.4068.496.9292.7439 1.5673.7439.5264 0 1.0369-.164 1.5314-.492.4945-.3279.8774-.8118 1.1485-1.4517h.9332c-.5583 1.5677-1.348 2.7475-2.3688 3.5394-1.021.7918-2.0738 1.1877-3.1585 1.1877-.7338 0-1.4517-.204-2.1535-.6118-.702-.408-1.2204-.9919-1.5554-1.7517-.335-.7599-.5025-1.9316-.5025-3.5154V13.8214h-3.4695v-.7918c.8774-.352 1.7746-.9478 2.6919-1.7877.9172-.8398 1.7348-1.8356 2.4526-2.9874.3669-.608.8774-1.7197 1.5314-3.3354z" font-weight="400" font-size="706.66" font-family="Bitstream Vera Sans" fill="purple"/>
</svg>