<svg xmlns="http://www.w3.org/2000/svg" clip-rule="evenodd" fill-rule="evenodd" stroke-linejoin="round" stroke-miterlimit="1.4142" viewBox="-19.1562 -8.97225 166.0204 53.8335">
   <g fill-rule="nonzero">
      <path d="M127.236 6.614l-1.1 1.493-1.094-1.493h-.473v3.219h.487V7.418l.934 1.275h.29l.941-1.277v2.417h.487V6.614zm-3.459 2.364c0 .533-.516.927-1.164.91-.609-.012-1.183-.269-1.183-.269l.134-.427s.586.259 1.023.254c.41-.005.674-.185.674-.468 0-.343-.343-.439-.749-.557-.489-.141-1.048-.304-1.048-.967 0-.528.47-.876 1.149-.893.487-.014 1.071.231 1.071.231l-.135.425s-.533-.226-.909-.216c-.404.014-.665.177-.665.453 0 .322.341.423.737.533.499.142 1.065.305 1.065.991zm-12.144 9.603c0 1.879-1.109 2.985-2.935 2.985-1.346 0-2.165-.722-2.165-1.877 0-1.298 1.059-2.071 2.837-2.071.866 0 1.541.096 2.263.243zm0-2.357c-.722-.195-1.685-.288-2.551-.288-3.079 0-4.91 1.49-4.91 3.945 0 2.168 1.735 3.61 4.236 3.61 1.492 0 2.697-.576 3.513-1.589.339 1.013 1.203 1.589 2.359 1.589.483 0 1.011-.096 1.347-.24l-.24-1.831c-.19.048-.432.098-.624.098-.579 0-.821-.29-.821-.866v-5.055c0-2.695-1.778-4.332-4.716-4.332-1.445 0-3.082.384-4.478 1.059l.722 1.879c1.013-.578 2.218-.917 3.372-.917 1.826 0 2.791.821 2.791 2.407zm-22.814-4.668h-2.357V23.25h2.357zm-1.155-1.685c.864 0 1.493-.626 1.493-1.493 0-.866-.629-1.49-1.493-1.49-.866 0-1.538.624-1.538 1.49 0 .867.672 1.493 1.538 1.493zm32.823 11.597c-.816 0-1.104-.334-1.104-1.251V6.595h-2.362v13.961c0 1.877 1.061 2.935 3.034 2.935.482 0 1.01-.096 1.346-.24l-.24-1.877c-.192.046-.482.094-.674.094zm-40.14-8.088c.965 0 2.073.437 2.988 1.111l1.056-1.733c-1.056-.914-2.645-1.493-4.138-1.493-3.417 0-5.921 2.552-5.921 6.113 0 3.706 2.312 6.113 5.775 6.113 1.639 0 3.324-.576 4.284-1.49l-1.056-1.688c-.869.72-1.829 1.061-2.892 1.061-2.259 0-3.706-1.541-3.706-3.996 0-2.405 1.447-3.998 3.61-3.998zm-12.271-2.115c-1.539 0-2.888.675-3.754 1.781l-.192-1.49h-1.975v11.695h2.359v-6.547c0-1.973 1.25-3.324 3.034-3.324 1.586 0 2.599 1.015 2.599 2.601v7.27h2.357v-7.558c0-2.647-1.781-4.428-4.428-4.428zm-9 11.986V11.556h-2.357v11.695zm-1.155-13.38c.867 0 1.493-.626 1.493-1.493 0-.866-.626-1.49-1.493-1.49-.866 0-1.541.624-1.541 1.49 0 .867.675 1.493 1.541 1.493zm-4.622 1.493c-1.347 0-2.597.621-3.271 1.682l-.192-1.49H47.86v11.695h2.36v-6.305c0-2.263 1.06-3.463 3.079-3.463.341 0 .821.091 1.301.19l.29-2.024c-.482-.192-1.013-.285-1.591-.285zM37.322 9.391h2.935c2.215 0 3.514 1.104 3.514 3.077 0 1.975-1.299 3.081-3.514 3.081h-2.935zM34.867 7.32v15.931h2.455v-5.633h3.271c3.37 0 5.633-2.069 5.633-5.15 0-3.077-2.263-5.148-5.633-5.148zm62.136 14.054c-1.061 0-2.215-.53-2.794-1.25v-3.519c0-1.97 1.205-3.225 3.031-3.225 1.928 0 3.13 1.449 3.13 3.758 0 2.695-1.25 4.236-3.367 4.236zm.72-10.109c-1.493 0-2.887.627-3.754 1.781l-.192-1.49h-1.973v16.411h2.357v-5.63c.72.674 2.069 1.154 3.223 1.154 3.226 0 5.393-2.599 5.393-6.353 0-3.513-2.023-5.873-5.054-5.873z" fill="#58595d"/>
      <path d="M444.394 46.634c0 9.936 7.622 18.231 17.51 19.152v-12.64c-4.632-.435-7.814-3.857-7.814-8.391 0-4.392 2.942-7.574 6.993-7.574 3.713 0 6.223 2.316 6.223 5.741 0 3.038-1.929 5.018-5.402 5.546v4.678c7.138-.192 11.77-4.532 11.77-11.048 0-7.041-5.499-12.201-13.023-12.201-9.261 0-16.257 7.233-16.257 16.737z" fill="url(#_Linear1)" transform="translate(-444.394 -29.897)"/>
   </g>
   <defs id="defs8045">
      <linearGradient gradientTransform="rotate(-60 277.0483 -358.8078) scale(34.20356)" gradientUnits="userSpaceOnUse" y2="0" x2="1" y1="0" x1="0" id="_Linear1">
         <stop id="stop8022" offset="0" stop-color="#0073c0" stop-opacity="1"/>
         <stop id="stop8024" offset=".1" stop-color="#007ac3" stop-opacity="1"/>
         <stop id="stop8026" offset=".2" stop-color="#0b81c7" stop-opacity="1"/>
         <stop id="stop8028" offset=".3" stop-color="#1688cb" stop-opacity="1"/>
         <stop id="stop8030" offset=".4" stop-color="#218fcf" stop-opacity="1"/>
         <stop id="stop8032" offset=".5" stop-color="#2d97d3" stop-opacity="1"/>
         <stop id="stop8034" offset=".6" stop-color="#2ea1d5" stop-opacity="1"/>
         <stop id="stop8036" offset=".7" stop-color="#30abd6" stop-opacity="1"/>
         <stop id="stop8038" offset=".8" stop-color="#32b4d7" stop-opacity="1"/>
         <stop id="stop8040" offset=".9" stop-color="#35bed7" stop-opacity="1"/>
         <stop id="stop8042" offset="1" stop-color="#37c7d8" stop-opacity="1"/>
      </linearGradient>
   </defs>
</svg>