<svg xmlns="http://www.w3.org/2000/svg" viewBox="0 -100 1300 1000">
   <path d="M984.756 769.066c-1.128-.714 5.301-17.198 32.75-83.971 18.784-45.696 34.153-83.56 34.153-84.142 0-.583-4.694-13.301-10.432-28.263-5.738-14.963-24.226-63.205-41.085-107.205-56.162-146.576-76.484-199.598-95.191-248.36-14.838-38.678-18.276-48.536-17.172-49.235.759-.48 32.248-.881 69.975-.89 65.195-.014 68.677.076 70.25 1.814.91 1.006 1.655 2.116 1.655 2.467 0 .573 12.88 38.35 48.823 143.204 6.599 19.25 17.89 52.325 25.092 73.5 14.739 43.332 15.848 46.175 17.127 43.89.477-.852 12.322-36.388 26.324-78.97a461188.022 461188.022 0 0143.053-130.866c9.678-29.395 18.155-53.8 18.839-54.234.683-.434 32.419-.796 70.524-.805 58.62-.013 69.364.201 69.82 1.391.297.774-6.875 21.136-15.937 45.25-19.71 52.447-78.5 208.92-134.633 358.344a227368.23 227368.23 0 00-57.05 152c-8.958 23.925-16.98 44.063-17.826 44.75-1.197.973-16.618 1.247-69.597 1.235-37.92-.01-68.68-.409-69.462-.904zm-796.097-159.06C118.64 598.052 58.28 554.229 25.676 491.674c-34.8-66.769-34.197-145.038 1.634-211.88 29.003-54.107 82.282-95.994 141.05-110.891 23.33-5.914 27.579-6.382 57.8-6.36 26.411.018 28.783.174 41.821 2.75 45.445 8.977 85.18 30.135 117.693 62.67 36.972 36.994 59.083 83.456 64.97 136.522.606 5.462 1.002 54.063 1.007 123.643.007 103.622-.144 114.701-1.574 115.25-2.066.793-124.77.793-126.836 0-1.417-.544-1.582-6.626-1.582-58.44 0-31.81-.382-58.071-.85-58.36-.822-.508-20.768 20.487-83.474 87.862-32.646 35.077-35.124 37.59-36.942 37.452-.678-.052-5.959-.9-11.734-1.886zm132.794-178.021c.194-33.423-.085-53.167-.825-58.386-5.19-36.609-30.953-66.703-66.766-77.995-44.341-13.98-92.769 6.794-113.949 48.881-7.035 13.981-10.998 33.443-9.865 48.451 2.95 39.08 28.178 72.267 64.349 84.651 5.37 1.838 12.238 3.754 15.262 4.258 3.025.503 29.35.853 58.5.777l53-.137zm190.206-129.98V1.022l2.25-.545c1.238-.3 31.5-.42 67.25-.269l65 .276.252 301.25.251 301.25H511.66zM712.27 601.41c-.336-.874-.61-136.012-.61-300.307 0-231.003.272-298.99 1.2-299.918.91-.91 17.083-1.196 66.75-1.185 36.053.008 66.113.373 66.802.81.998.634 1.2 61.542 1 301.235l-.252 300.44-67.14.257c-60.576.232-67.2.102-67.75-1.332z" fill="#50104a"/>
   <path d="M985.66 767.54c0-.243 8.37-20.83 18.601-45.75a87167.413 87167.413 0 0022.898-55.805c2.362-5.775 9.014-21.975 14.78-36 5.768-14.025 10.765-26.421 11.106-27.547.41-1.353-4.837-16.279-15.467-44a860333.616 860333.616 0 01-94.45-246.453 695379.322 695379.322 0 00-44.569-116.319c-5.445-14.2-9.9-26.016-9.9-26.257 0-.24 31.133-.322 69.185-.18l69.184.256 14.9 43.5c41.28 120.523 61.287 178.99 70.814 206.954 2.709 7.95 5.376 14.905 5.928 15.457.671.671 1.462.52 2.389-.454.762-.801 9.119-25.082 18.571-53.957 16.218-49.542 24.146-73.63 56.278-171l13.366-40.5 69.192-.257c38.056-.141 69.193.116 69.193.572 0 .455-9.709 26.671-21.575 58.257l-75.11 199.928c-29.445 78.375-68.595 182.55-87 231.5-18.405 48.95-34.846 92.825-36.534 97.5-1.69 4.675-3.51 9.063-4.048 9.75-.765.978-15.841 1.25-69.355 1.25-37.608 0-68.378-.2-68.378-.444zM513.123 600.743c-.262-.691-.362-135.582-.22-299.757l.255-298.5h132v599l-65.779.257c-52.093.204-65.877-.004-66.256-1zm201.202.576c-.367-.366-.667-135.366-.667-300V1.985h132v600h-65.333c-35.934 0-65.634-.3-66-.667z"/>
</svg>