<svg xmlns="http://www.w3.org/2000/svg" version="1.0" viewBox="-7.6638 -7.35405 66.4196 44.1243">
   <path d="M39.216 26.7882c0 .988-.12 2.628-2.436 2.628-.488 0-1.526-.003-2.147-.632-.395-.398-.578-1.037-.578-1.999v-3.47c0-.324-.204-.414-.703-.414v-.443h3.055v.443c-.496 0-.699.09-.699.414v3.695c0 .837.064 1.779 1.324 1.814 1.412.046 1.521-1.121 1.521-1.925v-3.562c0-.324-.055-.438-.554-.438h-.174v-.441h2.106v.443h-.169c-.487 0-.547.113-.547.438v3.449zm10.744 2.442h-3.389v-.434h.221c.516 0 .646-.21.646-.531v-5.219h-.663c-.352 0-.489.079-.604.248-.127.182-.127.65-.135.974h-.588v-1.81h5.644v1.811h-.591c-.008-.323-.008-.792-.137-.974-.114-.169-.254-.248-.601-.248h-.671v5.219c0 .321.13.531.645.531h.224v.433zm-4.634-1.889c-.099 1.112-.969 2.075-2.729 2.075-.97 0-1.997-.311-2.391-.593v-1.673h.608c.008.191.008.359.046.591.034.18.085.342.213.491.239.284.693.598 1.535.612 1.068.019 1.559-.57 1.551-1.11-.013-.774-.424-.904-1.905-1.241-1.475-.344-2.071-.899-2.064-2.105.006-1.126.842-2.148 2.623-2.131 1.061.012 1.617.189 2.113.425v1.587h-.598c-.007-.16-.018-.364-.039-.564-.013-.188-.071-.364-.229-.496-.457-.38-1.055-.399-1.464-.382-.553.021-1.284.315-1.284.947-.005.61.243.819 1.515 1.08 1.149.232 1.625.387 2.011.78.405.424.554 1.015.488 1.707m-38.65-.482c-.144 1.337-1.182 2.554-3.502 2.554-1.271 0-2.587-.4-3.102-.783v-2.247H.78c.013.256.021.477.061.721.037.229.115.476.263.674.408.513 1.021.885 2.064.9 1.552.019 2.066-.878 2.058-1.639-.012-.947-.667-1.207-2.427-1.646-1.684-.42-2.79-1.046-2.799-2.691-.007-1.563 1.117-2.802 3.404-2.802 1.373 0 2.107.273 2.716.567v1.99h-.663c-.01-.204-.019-.486-.069-.72-.057-.283-.214-.53-.386-.649-.57-.392-1.106-.488-1.793-.458-.961.037-1.74.516-1.753 1.32-.015.806.298 1.18 1.986 1.548 1.41.312 2.163.594 2.623 1.047.616.624.711 1.389.611 2.314m7.134-3.958c.498 0 .536.09.536.414v5.039c0 .318-.058.442-.557.442h-.177v.434h2.122v-.434h-.175c-.497 0-.557-.124-.557-.442v-4.24l2.855 5.116h1.604v-5.871c0-.322.063-.458.564-.458h.478v-.752c0-.644.053-1.397 1.002-1.397h1.063v7.254c0 .61-.143.791-.842.791h-.236v.434h4.054v-.434h-.228c-.705 0-.865-.181-.865-.791v-7.254h1.056c.935 0 .99.754.99 1.397v.752h.658c.507 0 .545.113.545.438v5.024c0 .322-.215.434-.729.434v.434h3.133v-.434c-.509 0-.73-.111-.73-.434v-5.377h.831c.651 0 1.134.237 1.134 1.233 0 .626-.253 1.338-1.155 1.338h-.495s1.239 2.507 1.465 2.969c.29.58.655.704 1.369.704h1.228v-.434c-.173 0-.512-.024-.702-.326l-1.465-2.554c.822-.172 1.414-.805 1.414-1.709 0-1.662-1.664-1.75-2.748-1.75h-3.086v-2.391h-7.332v2.391H18.07v.443h.179c.497 0 .553.132.553.458v4.189l-2.835-5.091h-4.462v.443h.175c.501 0 .559.09.559.414v3.585c0 .804-.112 1.971-1.524 1.925-1.26-.035-1.326-.978-1.326-1.814v-3.695c0-.324.203-.414.702-.414v-.442h-3.06v.443c.498 0 .699.09.699.414v3.47c0 .962.189 1.601.566 1.999.635.629 1.679.632 2.162.632 2.302 0 2.423-1.64 2.423-3.044v-3.48c0 .1.039.01.535.01h.394z" fill="#00447C"/>
   <g transform="translate(-.454 -.2918)">
      <linearGradient y2="-.0118" x2="19.3742" y1="15.5039" x1="6.355" gradientUnits="userSpaceOnUse" id="a">
         <stop offset=".3427" stop-color="#fdb913"/>
         <stop offset=".3656" stop-color="#fbb415"/>
         <stop offset=".5519" stop-color="#ef941b"/>
         <stop offset=".7247" stop-color="#e8801d"/>
         <stop offset=".8776" stop-color="#e4741e"/>
         <stop offset=".9944" stop-color="#e36f1e"/>
      </linearGradient>
      <path d="M6.818 11.481l-.146.405c-.125.339-.142.945-.049 1.268l.749 3.872c.059.336.165.476.277.456.122-.031.109-.286.038-.87l-.565-5.132c-.04-.323-.182-.329-.304.001" fill="url(#a)"/>
      <linearGradient y2=".4537" x2="19.7617" y1="15.9121" x1="6.7905" gradientUnits="userSpaceOnUse" id="b">
         <stop offset=".3427" stop-color="#fdb913"/>
         <stop offset=".3656" stop-color="#fbb415"/>
         <stop offset=".5519" stop-color="#ef941b"/>
         <stop offset=".7247" stop-color="#e8801d"/>
         <stop offset=".8776" stop-color="#e4741e"/>
         <stop offset=".9944" stop-color="#e36f1e"/>
      </linearGradient>
      <path d="M8.405 15.549c.014.334.05.734-.064.763-.106.022-.171-.108-.226-.539l-.243-2.286c-.043-.328.013-1.022.135-1.265.124-.243.238-.181.251.145z" fill="url(#b)"/>
      <linearGradient y2="-.1608" x2="18.8799" y1="15.2412" x1="5.9561" gradientUnits="userSpaceOnUse" id="c">
         <stop offset=".3427" stop-color="#fdb913"/>
         <stop offset=".3656" stop-color="#fbb415"/>
         <stop offset=".5519" stop-color="#ef941b"/>
         <stop offset=".7247" stop-color="#e8801d"/>
         <stop offset=".8776" stop-color="#e4741e"/>
         <stop offset=".9944" stop-color="#e36f1e"/>
      </linearGradient>
      <path d="M9.423 7.856l-.292 6.661c-.005.303-.025.689-.138.663-.063-.015-.139-.191-.145-.495L8.72 9.217c-.008-.272.096-.721.242-.993l.201-.378c.146-.265.283-.261.26.01" fill="url(#c)"/>
      <linearGradient y2=".5683" x2="19.6373" y1="15.9326" x1="6.7451" gradientUnits="userSpaceOnUse" id="d">
         <stop offset=".3427" stop-color="#fdb913"/>
         <stop offset=".3656" stop-color="#fbb415"/>
         <stop offset=".5519" stop-color="#ef941b"/>
         <stop offset=".7247" stop-color="#e8801d"/>
         <stop offset=".8776" stop-color="#e4741e"/>
         <stop offset=".9944" stop-color="#e36f1e"/>
      </linearGradient>
      <path d="M10.423 9.218l-.453 5.08c-.046.359-.099.728-.205.723-.072-.002-.135-.226-.099-.562l.188-4.361c.032-.315.244-.788.379-1.03.137-.236.24-.128.19.15" fill="url(#d)"/>
      <linearGradient y2=".1919" x2="19.0933" y1="15.5225" x1="6.2295" gradientUnits="userSpaceOnUse" id="e">
         <stop offset=".3427" stop-color="#fdb913"/>
         <stop offset=".3656" stop-color="#fbb415"/>
         <stop offset=".5519" stop-color="#ef941b"/>
         <stop offset=".7247" stop-color="#e8801d"/>
         <stop offset=".8776" stop-color="#e4741e"/>
         <stop offset=".9944" stop-color="#e36f1e"/>
      </linearGradient>
      <path d="M10.595 13.938c-.087-.011-.091-.371-.067-.616l.712-7.031c.039-.26.228-.66.416-.891l.068-.084c.195-.235.338-.213.285.04l-1.2 7.974c-.062.344-.107.608-.214.608" fill="url(#e)"/>
      <linearGradient y2=".9976" x2="19.9502" y1="16.2891" x1="7.1191" gradientUnits="userSpaceOnUse" id="f">
         <stop offset=".3427" stop-color="#fdb913"/>
         <stop offset=".3656" stop-color="#fbb415"/>
         <stop offset=".5519" stop-color="#ef941b"/>
         <stop offset=".7247" stop-color="#e8801d"/>
         <stop offset=".8776" stop-color="#e4741e"/>
         <stop offset=".9944" stop-color="#e36f1e"/>
      </linearGradient>
      <path d="M12.717 6.52c.157-.178.417-.077.361.175l-1.557 7.103c-.056.254-.167.646-.283.633-.096-.007-.089-.38-.02-.682l1.12-6.423c.055-.259.219-.632.379-.806" fill="url(#f)"/>
      <linearGradient y2="1.8178" x2="20.7021" y1="17.001" x1="7.9619" gradientUnits="userSpaceOnUse" id="g">
         <stop offset=".3427" stop-color="#fdb913"/>
         <stop offset=".3656" stop-color="#fbb415"/>
         <stop offset=".5519" stop-color="#ef941b"/>
         <stop offset=".7247" stop-color="#e8801d"/>
         <stop offset=".8776" stop-color="#e4741e"/>
         <stop offset=".9944" stop-color="#e36f1e"/>
      </linearGradient>
      <path d="M12.876 13.716c-.113.245-.252.597-.41.53-.114-.045.115-.6.115-.6l3.861-9.417c.124-.274.4-.625.701-.478.269.13-.02.66-.126.899-2.341 5.263-3.008 6.622-4.141 9.066" fill="url(#g)"/>
      <linearGradient y2="2.2726" x2="21.1378" y1="17.4053" x1="8.4399" gradientUnits="userSpaceOnUse" id="h">
         <stop offset=".3427" stop-color="#fdb913"/>
         <stop offset=".3656" stop-color="#fbb415"/>
         <stop offset=".5519" stop-color="#ef941b"/>
         <stop offset=".7247" stop-color="#e8801d"/>
         <stop offset=".8776" stop-color="#e4741e"/>
         <stop offset=".9944" stop-color="#e36f1e"/>
      </linearGradient>
      <path d="M13.744 13.252c.092.07.309-.188.478-.481L21.29.998c.125-.212.197-.553-.057-.68-.198-.099-.54.094-.702.381l-6.569 11.859c-.193.357-.307.623-.218.694" fill="url(#h)"/>
      <linearGradient y2="3.3799" x2="22.3543" y1="18.4668" x1="9.6948" gradientUnits="userSpaceOnUse" id="i">
         <stop offset=".3427" stop-color="#fdb913"/>
         <stop offset=".3656" stop-color="#fbb415"/>
         <stop offset=".5519" stop-color="#ef941b"/>
         <stop offset=".7247" stop-color="#e8801d"/>
         <stop offset=".8776" stop-color="#e4741e"/>
         <stop offset=".9944" stop-color="#e36f1e"/>
      </linearGradient>
      <path d="M13.907 14.521c-.092-.091.065-.382.254-.675l7.548-10.955c.204-.31.654-.653.93-.493.25.145.254.457.043.75l-8.239 10.906c-.204.294-.44.564-.536.467" fill="url(#i)"/>
      <linearGradient y2="4.7624" x2="23.9045" y1="19.8027" x1="11.2842" gradientUnits="userSpaceOnUse" id="j">
         <stop offset=".3427" stop-color="#fdb913"/>
         <stop offset=".3656" stop-color="#fbb415"/>
         <stop offset=".5519" stop-color="#ef941b"/>
         <stop offset=".7247" stop-color="#e8801d"/>
         <stop offset=".8776" stop-color="#e4741e"/>
         <stop offset=".9944" stop-color="#e36f1e"/>
      </linearGradient>
      <path d="M16.14 13.251s-.499.522-.603.405c-.108-.113.095-.332.315-.613l.247-.298L26.647.647c.17-.208.402-.218.625-.053l.319.393c.174.198.162.541-.03.733z" fill="url(#j)"/>
      <linearGradient y2="5.8963" x2="25.1478" y1="20.8867" x1="12.5693" gradientUnits="userSpaceOnUse" id="k">
         <stop offset=".3427" stop-color="#fdb913"/>
         <stop offset=".3656" stop-color="#fbb415"/>
         <stop offset=".5519" stop-color="#ef941b"/>
         <stop offset=".7247" stop-color="#e8801d"/>
         <stop offset=".8776" stop-color="#e4741e"/>
         <stop offset=".9944" stop-color="#e36f1e"/>
      </linearGradient>
      <path d="M15.285 15.191c-.082-.082.101-.326.436-.621L26.92 4.279c.201-.207.482-.2.663-.026.235.224.315.432.353.63.063.325-.118.469-.348.675l-11.664 9.287c-.288.254-.544.434-.639.346" fill="url(#k)"/>
      <linearGradient y2="7.4663" x2="26.9106" y1="22.4063" x1="14.3745" gradientUnits="userSpaceOnUse" id="l">
         <stop offset=".3427" stop-color="#fdb913"/>
         <stop offset=".3656" stop-color="#fbb415"/>
         <stop offset=".5519" stop-color="#ef941b"/>
         <stop offset=".7247" stop-color="#e8801d"/>
         <stop offset=".8776" stop-color="#e4741e"/>
         <stop offset=".9944" stop-color="#e36f1e"/>
      </linearGradient>
      <path d="M17.606 14.27l13.03-9.312c.249-.196.476-.151.539.095l.302 1.043c.069.258-.113.603-.379.79L17.83 14.574c-.326.208-.665.391-.749.276-.103-.143.225-.336.525-.58" fill="url(#l)"/>
      <linearGradient y2="8.0957" x2="27.5221" y1="22.959" x1="15.0503" gradientUnits="userSpaceOnUse" id="m">
         <stop offset=".3427" stop-color="#fdb913"/>
         <stop offset=".3656" stop-color="#fbb415"/>
         <stop offset=".5519" stop-color="#ef941b"/>
         <stop offset=".7247" stop-color="#e8801d"/>
         <stop offset=".8776" stop-color="#e4741e"/>
         <stop offset=".9944" stop-color="#e36f1e"/>
      </linearGradient>
      <path d="M16.219 16.225c-.039-.152.305-.294.669-.481l11.66-5.879c.316-.173.565-.085.563.188l.053 1.295c-.005.283-.303.631-.665.776l-11.493 3.999c-.403.156-.753.247-.787.102" fill="url(#m)"/>
      <linearGradient y2="9.6988" x2="29.244" y1="24.4658" x1="16.853" gradientUnits="userSpaceOnUse" id="n">
         <stop offset=".3427" stop-color="#fdb913"/>
         <stop offset=".3656" stop-color="#fbb415"/>
         <stop offset=".5519" stop-color="#ef941b"/>
         <stop offset=".7247" stop-color="#e8801d"/>
         <stop offset=".8776" stop-color="#e4741e"/>
         <stop offset=".9944" stop-color="#e36f1e"/>
      </linearGradient>
      <path d="M29.883 15.11l-11.259 1.611c-.441.068-.765.139-.799.01-.038-.156.338-.251.75-.39l11.681-3.547c.376-.125.671.012.636.303l-.166 1.337c-.036.308-.411.614-.843.676" fill="url(#n)"/>
      <linearGradient y2="9.9032" x2="29.2618" y1="24.5488" x1="16.9727" gradientUnits="userSpaceOnUse" id="o">
         <stop offset=".3427" stop-color="#fdb913"/>
         <stop offset=".3656" stop-color="#fbb415"/>
         <stop offset=".5519" stop-color="#ef941b"/>
         <stop offset=".7247" stop-color="#e8801d"/>
         <stop offset=".8776" stop-color="#e4741e"/>
         <stop offset=".9944" stop-color="#e36f1e"/>
      </linearGradient>
      <path d="M17.073 17.814c-.031-.166.529-.26.962-.305l9.958-1.168c.445-.045.81.192.665.578l-.202.525c-.119.336-.485.57-.947.539l-9.545.004c-.418.006-.859-.007-.891-.173" fill="url(#o)"/>
      <linearGradient y2=".8433" x2="19.6549" y1="16.082" x1="6.8682" gradientUnits="userSpaceOnUse" id="p">
         <stop offset=".3427" stop-color="#fdb913"/>
         <stop offset=".3656" stop-color="#fbb415"/>
         <stop offset=".5519" stop-color="#ef941b"/>
         <stop offset=".7247" stop-color="#e8801d"/>
         <stop offset=".8776" stop-color="#e4741e"/>
         <stop offset=".9944" stop-color="#e36f1e"/>
      </linearGradient>
      <path d="M15.695 3.047s-2.884 8.861-3.05 9.338c-.177.511-.349.966-.5.927-.097-.029-.021-.354.087-.746l2.73-9.614c.13-.388.536-.723.695-.691.287.055.122.541.038.786" fill="url(#p)"/>
   </g>
</svg>